<svg width="22" height="22" viewBox="0 0 22 22" fill="none" xmlns="http://www.w3.org/2000/svg">
<path d="M11 0C4.92422 0 0 4.92422 0 11C0 17.0758 4.92422 22 11 22C17.0758 22 22 17.0758 22 11C22 4.92422 17.0758 0 11 0ZM11 17.1875C10.2266 17.1875 9.625 16.5859 9.625 15.8125C9.625 15.0391 10.1879 14.4375 11 14.4375C11.7348 14.4375 12.375 15.0391 12.375 15.8125C12.375 16.5859 11.7348 17.1875 11 17.1875ZM13.9691 11.0859L12.0312 12.2891V12.375C12.0312 12.9336 11.5586 13.4062 11 13.4062C10.4414 13.4062 9.96875 12.9336 9.96875 12.375V11.6875C9.96875 11.3438 10.1406 11 10.4844 10.7852L12.9336 9.32422C13.2344 9.15234 13.4062 8.85156 13.4062 8.50781C13.4062 7.99219 12.9379 7.5625 12.4223 7.5625H10.2266C9.67227 7.5625 9.28125 7.99219 9.28125 8.50781C9.28125 9.06641 8.80859 9.53906 8.25 9.53906C7.69141 9.53906 7.21875 9.06641 7.21875 8.50781C7.21875 6.83203 8.55078 5.5 10.1879 5.5H12.3836C14.1367 5.5 15.4688 6.83203 15.4688 8.50781C15.4688 9.53906 14.9102 10.5273 13.9691 11.0859Z" fill="#407991"/>
</svg>
