<svg width="24" height="21" viewBox="0 0 24 21" fill="none" xmlns="http://www.w3.org/2000/svg">
<path d="M23.9917 10.4795C23.9917 11.2178 23.3667 11.7961 22.6583 11.7961H21.325L21.3542 18.3627C21.3542 18.4775 21.3458 18.5842 21.3333 18.6949V19.3594C21.3333 20.2658 20.5875 21 19.6667 21H19C18.9542 21 18.9083 20.9631 18.8625 20.9959C18.8042 20.9631 18.7458 21 18.6875 21H16.3333C15.4125 21 14.6667 20.2658 14.6667 19.3594V15.75C14.6667 15.024 14.0708 14.4375 13.3333 14.4375H10.6667C9.92916 14.4375 9.33333 15.024 9.33333 15.75V19.3594C9.33333 20.2658 8.5875 21 7.66667 21H5.3375C5.275 21 5.2125 20.9959 5.15 20.9918C5.1 20.9959 5.05 21 5 21H4.33333C3.41292 21 2.66667 20.2658 2.66667 19.3594V14.7656C2.66667 14.7287 2.66792 14.6877 2.67042 14.6508V11.7961H1.33542C0.584167 11.7961 0 11.2178 0 10.4795C0 10.1104 0.125167 9.78223 0.417083 9.49512L11.1 0.328781C11.3917 0.0410976 11.725 0 12.0167 0C12.3083 0 12.6417 0.0821953 12.8958 0.287684L23.5333 9.49512C23.8667 9.78223 24.0375 10.1104 23.9917 10.4795Z" fill="white"/>
</svg>
