<svg width="14" height="14" viewBox="0 0 14 14" fill="none" xmlns="http://www.w3.org/2000/svg">
<path d="M13.6801 12.1319L10.407 8.85899C11.1513 7.75408 11.5186 6.37355 11.322 4.90252C10.9867 2.4004 8.93594 0.364194 6.43124 0.0471019C2.70728 -0.424093 -0.424135 2.70718 0.0471092 6.43097C0.364298 8.93664 2.40087 10.989 4.90338 11.3226C6.37448 11.5191 7.75534 11.1521 8.86003 10.4077L12.1331 13.6806C12.5602 14.1077 13.2528 14.1077 13.6799 13.6806C14.1067 13.2529 14.1067 12.5584 13.6801 12.1319ZM2.16287 5.68725C2.16287 3.75741 3.73295 2.1874 5.66288 2.1874C7.59281 2.1874 9.16289 3.75741 9.16289 5.68725C9.16289 7.61709 7.59281 9.1871 5.66288 9.1871C3.73295 9.1871 2.16287 7.61764 2.16287 5.68725Z" fill="#A0A0A0"/>
</svg>
