<svg width="26" height="21" viewBox="0 0 26 21" fill="none" xmlns="http://www.w3.org/2000/svg">
<g clip-path="url(#clip0_3207_430)">
<path d="M20.15 9.1C16.9163 9.1 14.3 11.7163 14.3 14.95C14.3 18.1838 16.9154 20.8 20.15 20.8C23.3846 20.8 26 18.1846 26 14.95C26 11.7154 23.3837 9.1 20.15 9.1ZM22.1 15.6H19.8961C19.6787 15.6 19.5 15.4213 19.5 15.2059V12.35C19.5 11.9925 19.7925 11.7 20.15 11.7C20.5075 11.7 20.8 11.9925 20.8 12.35V14.3H22.1C22.459 14.3 22.75 14.591 22.75 14.95C22.75 15.3075 22.4575 15.6 22.1 15.6ZM13.0041 14.3H8.45C8.0925 14.3 7.8 14.0075 7.8 13.65V11.7H0V17.55C0 18.59 0.910406 19.5 1.95 19.5H14.6331C13.6134 18.265 13 16.6766 13 14.95C13 14.7306 13.0203 14.5153 13.0041 14.3ZM20.15 7.8C20.3695 7.8 20.5855 7.81341 20.8 7.83277V5.85C20.8 4.81 19.89 3.9 18.85 3.9H15.6V1.95C15.6 0.910406 14.69 0 13.65 0H7.15C6.11 0 5.2 0.910406 5.2 1.95V3.9H1.95C0.910406 3.9 0 4.81 0 5.85V10.4H14.6331C15.9453 8.81156 17.9278 7.8 20.15 7.8ZM13.65 3.9H7.15V1.95H13.65V3.9Z" fill="#3B748C"/>
<circle cx="20" cy="15" r="6" fill="white"/>
</g>
<path d="M26 15C26 18.3141 23.3141 21 20 21C16.6859 21 14 18.3141 14 15C14 11.6859 16.6859 9 20 9C23.3141 9 26 11.6859 26 15ZM20 12.375C19.6883 12.375 19.4375 12.6258 19.4375 12.9375V14.4375H17.9375C17.6258 14.4375 17.375 14.6883 17.375 15C17.375 15.3117 17.6258 15.5625 17.9375 15.5625H19.4375V17.0625C19.4375 17.3742 19.6883 17.625 20 17.625C20.3117 17.625 20.5625 17.3742 20.5625 17.0625V15.5625H22.0625C22.3742 15.5625 22.625 15.3117 22.625 15C22.625 14.6883 22.3742 14.4375 22.0625 14.4375H20.5625V12.9375C20.5625 12.6258 20.3117 12.375 20 12.375Z" fill="#3B748C"/>
<defs>
<clipPath id="clip0_3207_430">
<rect width="26" height="20.8" fill="white"/>
</clipPath>
</defs>
</svg>
